<svg id="图层_1" data-name="图层 1" xmlns="http://www.w3.org/2000/svg" viewBox="0 0 765 230"><defs><style>.cls-1{fill:#fff;}</style></defs><title>画板 1 副本</title><polygon class="cls-1" points="2.15 29.02 104.25 28.12 104.25 185.38 36.54 202.26 36.54 53.91 92.83 42.11 0 44.13 0 211.38 0 229.65 36.54 220.53 140.8 194.54 140.8 178.06 140.8 176.27 140.8 0.28 2.15 29.02"/><path class="cls-1" d="M271.68,125.53h-49.8L211.57,149H197.78l42.44-93.71h13.25L296,149H282ZM267,114.82,246.78,68.9l-20.22,45.92Z"/><path class="cls-1" d="M330.31,80.55a36,36,0,0,1,15.94-3.21V89.79a24.85,24.85,0,0,0-2.95-.14q-10.44,0-16.4,6.23t-6,17.74V149H308.09V78h12.32V89.92A21.94,21.94,0,0,1,330.31,80.55Z"/><path class="cls-1" d="M404.88,144.81a19.17,19.17,0,0,1-7,3.68,29,29,0,0,1-8.57,1.27q-10.71,0-16.6-5.75t-5.89-16.47v-39H354.81V78h12.05V62.48h12.85V78h20.35V88.58H379.71V127q0,5.76,2.88,8.84t8.23,3.08a15.48,15.48,0,0,0,10-3.35Z"/><path class="cls-1" d="M476.5,81.89a32.66,32.66,0,0,1,12.79,12.72,37.64,37.64,0,0,1,4.62,18.87,38.08,38.08,0,0,1-4.62,19,32.61,32.61,0,0,1-12.79,12.78A37.21,37.21,0,0,1,458,149.76a32.92,32.92,0,0,1-14-2.94,29.1,29.1,0,0,1-10.78-8.57v36.68H420.41V78h12.31V89.25a27.34,27.34,0,0,1,10.85-8.9,34.19,34.19,0,0,1,14.46-3A37.21,37.21,0,0,1,476.5,81.89Zm-7.29,53.48a22.59,22.59,0,0,0,8.56-8.83,28.63,28.63,0,0,0,0-26.11,22.17,22.17,0,0,0-8.56-8.77A24.41,24.41,0,0,0,457,88.58a23.68,23.68,0,0,0-12.12,3.15,22.86,22.86,0,0,0-8.57,8.77,26.17,26.17,0,0,0-3.14,13,27,27,0,0,0,3.08,13.06,22,22,0,0,0,8.56,8.83,25.28,25.28,0,0,0,24.44,0Z"/><path class="cls-1" d="M533.93,80.55a36,36,0,0,1,15.93-3.21V89.79a24.54,24.54,0,0,0-2.94-.14q-10.44,0-16.4,6.23t-6,17.74V149H511.71V78H524V89.92A21.94,21.94,0,0,1,533.93,80.55Z"/><path class="cls-1" d="M628.85,117.77H571.28a22.33,22.33,0,0,0,8.24,15.06q7,5.68,17.47,5.69,12.72,0,20.48-8.57l7.1,8.3a31.07,31.07,0,0,1-12,8.57,45.19,45.19,0,0,1-35.94-1.68,33,33,0,0,1-13.46-12.91,37.17,37.17,0,0,1-4.75-18.75,37.63,37.63,0,0,1,4.62-18.61A33.13,33.13,0,0,1,575.77,82,36.31,36.31,0,0,1,594,77.34,35.59,35.59,0,0,1,612.18,82a32.47,32.47,0,0,1,12.45,12.92,39.37,39.37,0,0,1,4.49,19A36.57,36.57,0,0,1,628.85,117.77Zm-50.27-24a22.71,22.71,0,0,0-7.3,14.73H616.8a22.79,22.79,0,0,0-7.29-14.66,24,24,0,0,0-30.93-.07Z"/><path class="cls-1" d="M650.54,147.42a36.74,36.74,0,0,1-12.59-6l5.36-10.17a38.36,38.36,0,0,0,11.38,5.35,46.77,46.77,0,0,0,13.52,2q16.86,0,16.87-9.64a6.26,6.26,0,0,0-2.28-5.09,14.52,14.52,0,0,0-5.69-2.74c-2.27-.58-5.51-1.23-9.7-1.94a94.44,94.44,0,0,1-14-3.08,21.53,21.53,0,0,1-9.31-5.89q-3.89-4.15-3.88-11.65a18.2,18.2,0,0,1,8-15.46q8-5.82,21.56-5.82A59.38,59.38,0,0,1,684,79.08a38.15,38.15,0,0,1,11.64,4.68l-5.49,10.18a36.89,36.89,0,0,0-20.48-5.63q-8.16,0-12.45,2.68c-2.86,1.79-4.28,4.15-4.28,7.1a6.76,6.76,0,0,0,2.41,5.49,15.24,15.24,0,0,0,5.95,2.94q3.56.95,10,2.14a108.56,108.56,0,0,1,13.85,3.15,20.7,20.7,0,0,1,9,5.69q3.75,4,3.75,11.24,0,9.64-8.23,15.33t-22.43,5.69A59.48,59.48,0,0,1,650.54,147.42Z"/><path class="cls-1" d="M717.61,147.42a36.74,36.74,0,0,1-12.59-6l5.36-10.17a38.36,38.36,0,0,0,11.38,5.35,46.77,46.77,0,0,0,13.52,2q16.86,0,16.87-9.64a6.26,6.26,0,0,0-2.28-5.09,14.52,14.52,0,0,0-5.69-2.74c-2.27-.58-5.51-1.23-9.7-1.94a94.44,94.44,0,0,1-14-3.08,21.53,21.53,0,0,1-9.31-5.89q-3.88-4.15-3.88-11.65a18.2,18.2,0,0,1,8-15.46q8-5.82,21.56-5.82a59.38,59.38,0,0,1,14.19,1.74,38.15,38.15,0,0,1,11.64,4.68l-5.48,10.18a36.93,36.93,0,0,0-20.49-5.63q-8.16,0-12.45,2.68c-2.86,1.79-4.28,4.15-4.28,7.1a6.76,6.76,0,0,0,2.41,5.49,15.24,15.24,0,0,0,6,2.94q3.55.95,10,2.14a108.56,108.56,0,0,1,13.85,3.15,20.7,20.7,0,0,1,9,5.69q3.75,4,3.75,11.24,0,9.64-8.23,15.33t-22.43,5.69A59.48,59.48,0,0,1,717.61,147.42Z"/></svg>