<svg id="图层_1" data-name="图层 1" xmlns="http://www.w3.org/2000/svg" viewBox="0 0 765 253"><defs><style>.cls-1{fill:#477047;}</style></defs><title>画板 1</title><polygon class="cls-1" points="26 46 121 45.16 121 191.48 58 207.19 58 69.16 110.37 58.18 24 60.06 24 215.67 24 232.67 58 224.19 155 200 155 184.67 155 183 155 19.26 26 46"/><path class="cls-1" d="M276.77,135.8H230.44l-9.59,21.79H208L247.5,70.4h12.33l39.61,87.19H286.36Zm-4.36-10L253.6,83.11l-18.8,42.72Z"/><path class="cls-1" d="M331.33,93.94a33.49,33.49,0,0,1,14.82-3v11.59a23.78,23.78,0,0,0-2.74-.13q-9.71,0-15.26,5.8t-5.54,16.5v32.88h-12v-66h11.46v11.08A20.46,20.46,0,0,1,331.33,93.94Z"/><path class="cls-1" d="M400.71,153.73a17.88,17.88,0,0,1-6.48,3.43,27,27,0,0,1-8,1.18q-10,0-15.45-5.36t-5.48-15.32V101.42H354.12V91.58h11.21V77.13h12V91.58h18.93v9.84H377.29v35.75q0,5.36,2.68,8.22c1.78,1.91,4.34,2.86,7.66,2.86a14.43,14.43,0,0,0,9.34-3.11Z"/><path class="cls-1" d="M467.35,95.19A30.46,30.46,0,0,1,479.24,107a35,35,0,0,1,4.3,17.57,35.35,35.35,0,0,1-4.3,17.62,30.37,30.37,0,0,1-11.89,11.9,34.76,34.76,0,0,1-17.19,4.23,30.53,30.53,0,0,1-13-2.74,27,27,0,0,1-10-8v34.13H415.16V91.58h11.45V102a25.44,25.44,0,0,1,10.09-8.28A31.87,31.87,0,0,1,450.16,91,34.76,34.76,0,0,1,467.35,95.19ZM460.56,145a21.08,21.08,0,0,0,8-8.22,26.64,26.64,0,0,0,0-24.29,20.66,20.66,0,0,0-8-8.16,22.68,22.68,0,0,0-11.4-2.86,22,22,0,0,0-11.27,2.92,21.26,21.26,0,0,0-8,8.16A24.27,24.27,0,0,0,427,124.59a25.11,25.11,0,0,0,2.86,12.14,20.51,20.51,0,0,0,8,8.22,23.51,23.51,0,0,0,22.73,0Z"/><path class="cls-1" d="M520.78,93.94a33.49,33.49,0,0,1,14.82-3v11.59a23.78,23.78,0,0,0-2.74-.13q-9.71,0-15.26,5.8t-5.54,16.5v32.88h-12v-66h11.46v11.08A20.46,20.46,0,0,1,520.78,93.94Z"/><path class="cls-1" d="M609.09,128.57H555.53a20.72,20.72,0,0,0,7.66,14q6.54,5.29,16.26,5.3,11.84,0,19-8l6.61,7.72a28.85,28.85,0,0,1-11.15,8A42,42,0,0,1,560.51,154,30.59,30.59,0,0,1,548,142a34.41,34.41,0,0,1-4.43-17.43,35.06,35.06,0,0,1,4.3-17.32,30.82,30.82,0,0,1,11.84-12,33.74,33.74,0,0,1,17-4.3,33,33,0,0,1,16.87,4.3,30.21,30.21,0,0,1,11.59,12A36.66,36.66,0,0,1,609.34,125,33.22,33.22,0,0,1,609.09,128.57Zm-46.77-22.29a21.09,21.09,0,0,0-6.79,13.7h42.35a21.16,21.16,0,0,0-6.79-13.64,22.27,22.27,0,0,0-28.77-.06Z"/><path class="cls-1" d="M629.27,156.16a34.17,34.17,0,0,1-11.71-5.54l5-9.47a35.6,35.6,0,0,0,10.59,5A43.43,43.43,0,0,0,645.71,148q15.7,0,15.7-9a5.81,5.81,0,0,0-2.12-4.73,13.46,13.46,0,0,0-5.29-2.55q-3.18-.81-9-1.81a88.26,88.26,0,0,1-13-2.86,20.14,20.14,0,0,1-8.66-5.48q-3.62-3.87-3.61-10.84a16.93,16.93,0,0,1,7.47-14.39Q634.64,91,647.21,91a55.71,55.71,0,0,1,13.2,1.62,35.8,35.8,0,0,1,10.84,4.36l-5.11,9.47a34.32,34.32,0,0,0-19.06-5.23q-7.59,0-11.58,2.49t-4,6.6a6.29,6.29,0,0,0,2.25,5.11,14.19,14.19,0,0,0,5.54,2.74q3.3.87,9.28,2A101.58,101.58,0,0,1,661.47,123a19.31,19.31,0,0,1,8.41,5.29q3.48,3.74,3.49,10.47,0,9-7.66,14.26t-20.87,5.29A55.41,55.41,0,0,1,629.27,156.16Z"/><path class="cls-1" d="M691.67,156.16a34.11,34.11,0,0,1-11.7-5.54l5-9.47a35.37,35.37,0,0,0,10.59,5A43.38,43.38,0,0,0,708.12,148q15.69,0,15.69-9a5.81,5.81,0,0,0-2.12-4.73,13.4,13.4,0,0,0-5.29-2.55q-3.18-.81-9-1.81a88.56,88.56,0,0,1-13-2.86,20.05,20.05,0,0,1-8.65-5.48q-3.62-3.87-3.62-10.84a16.92,16.92,0,0,1,7.48-14.39Q697,91,709.61,91a55.71,55.71,0,0,1,13.2,1.62,35.69,35.69,0,0,1,10.84,4.36l-5.11,9.47a34.29,34.29,0,0,0-19-5.23q-7.61,0-11.59,2.49c-2.66,1.66-4,3.86-4,6.6a6.29,6.29,0,0,0,2.24,5.11,14.19,14.19,0,0,0,5.54,2.74c2.2.58,5.3,1.24,9.28,2A101.58,101.58,0,0,1,723.87,123a19.25,19.25,0,0,1,8.41,5.29q3.48,3.74,3.49,10.47,0,9-7.66,14.26t-20.87,5.29A55.52,55.52,0,0,1,691.67,156.16Z"/></svg>