<svg id="full" xmlns="http://www.w3.org/2000/svg" viewBox="0 0 498 62"><defs><style>.cls-1{fill:#314c31;}.cls-2{fill:#7f774e;}.cls-3{fill:#477047;}.cls-4{fill:#b7ac6e;}</style></defs><title>画板 1</title><g id="shadow"><polygon class="cls-1" points="45.68 1.24 15.92 1.24 15.92 6.2 10.96 6.2 10.96 11.16 6 11.16 6 60.76 20.88 60.76 20.88 11.16 40.72 11.16 40.72 26.04 25.84 26.04 25.84 35.96 40.72 35.96 40.72 60.76 55.6 60.76 55.6 11.16 45.68 11.16 45.68 1.24"/><polygon class="cls-1" points="116.53 26.04 116.53 11.16 111.57 11.16 111.57 6.2 106.61 6.2 106.61 1.24 81.81 1.24 81.81 6.2 76.85 6.2 76.85 11.16 71.89 11.16 71.89 60.76 86.77 60.76 86.77 11.16 101.65 11.16 101.65 26.04 91.73 26.04 91.73 35.96 101.65 35.96 101.65 60.76 116.53 60.76 116.53 35.96 111.57 35.96 111.57 26.04 116.53 26.04"/><polygon class="cls-1" points="135.3 1.24 135.3 11.16 150.18 11.16 150.18 60.76 165.06 60.76 165.06 11.16 179.94 11.16 179.94 1.24 135.3 1.24"/><polygon class="cls-2" points="335.46 1.24 335.46 6.2 330.5 6.2 330.5 11.16 325.54 11.16 325.54 55.8 330.5 55.8 330.5 60.76 370.18 60.76 370.18 50.84 340.42 50.84 340.42 11.16 370.18 11.16 370.18 1.24 335.46 1.24"/><rect class="cls-2" x="350.34" y="26.04" width="19.84" height="9.92"/><polygon class="cls-2" points="433.59 11.16 433.59 1.24 398.87 1.24 398.87 6.2 393.91 6.2 393.91 11.16 388.95 11.16 388.95 31 393.91 31 393.91 35.96 418.71 35.96 418.71 50.84 388.95 50.84 388.95 60.76 428.63 60.76 428.63 55.8 433.59 55.8 433.59 31 428.63 31 428.63 26.04 403.83 26.04 403.83 11.16 433.59 11.16"/><polygon class="cls-2" points="497 11.16 497 1.24 462.28 1.24 462.28 6.2 457.32 6.2 457.32 11.16 452.36 11.16 452.36 31 457.32 31 457.32 35.96 482.12 35.96 482.12 50.84 452.36 50.84 452.36 60.76 492.04 60.76 492.04 55.8 497 55.8 497 31 492.04 31 492.04 26.04 467.24 26.04 467.24 11.16 497 11.16"/><polygon class="cls-2" points="306.76 26.04 306.76 11.16 301.8 11.16 301.8 6.2 296.85 6.2 296.85 1.24 272.05 1.24 272.05 6.2 267.09 6.2 267.09 11.16 262.13 11.16 262.13 60.76 277.01 60.76 277.01 11.16 291.88 11.16 291.88 26.04 281.97 26.04 281.97 35.96 291.88 35.96 291.88 60.76 306.76 60.76 306.76 35.96 301.8 35.96 301.8 26.04 306.76 26.04"/><polygon class="cls-2" points="240.87 11.16 240.87 1.24 206.16 1.24 206.16 6.2 201.2 6.2 201.2 11.16 196.24 11.16 196.24 60.76 211.12 60.76 211.12 11.16 230.95 11.16 230.95 26.04 216.07 26.04 216.07 35.96 240.87 35.96 240.87 26.04 245.83 26.04 245.83 11.16 240.87 11.16"/></g><g id="main"><polygon class="cls-3" points="40.68 1.24 10.92 1.24 10.92 6.2 5.96 6.2 5.96 11.16 1 11.16 1 60.76 15.88 60.76 15.88 11.16 35.72 11.16 35.72 26.04 20.84 26.04 20.84 35.96 35.72 35.96 35.72 60.76 50.6 60.76 50.6 11.16 40.68 11.16 40.68 1.24"/><polygon class="cls-3" points="111.53 26.04 111.53 11.16 106.57 11.16 106.57 6.2 101.61 6.2 101.61 1.24 76.81 1.24 76.81 6.2 71.85 6.2 71.85 11.16 66.89 11.16 66.89 60.76 81.77 60.76 81.77 11.16 96.65 11.16 96.65 26.04 86.73 26.04 86.73 35.96 96.65 35.96 96.65 60.76 111.53 60.76 111.53 35.96 106.57 35.96 106.57 26.04 111.53 26.04"/><polygon class="cls-3" points="130.3 1.24 130.3 11.16 145.18 11.16 145.18 60.76 160.06 60.76 160.06 11.16 174.94 11.16 174.94 1.24 130.3 1.24"/><polygon class="cls-4" points="330.46 1.24 330.46 6.2 325.5 6.2 325.5 11.16 320.54 11.16 320.54 55.8 325.5 55.8 325.5 60.76 365.18 60.76 365.18 50.84 335.42 50.84 335.42 11.16 365.18 11.16 365.18 1.24 330.46 1.24"/><rect class="cls-4" x="345.34" y="26.04" width="19.84" height="9.92"/><polygon class="cls-4" points="428.59 11.16 428.59 1.24 393.87 1.24 393.87 6.2 388.91 6.2 388.91 11.16 383.95 11.16 383.95 31 388.91 31 388.91 35.96 413.71 35.96 413.71 50.84 383.95 50.84 383.95 60.76 423.63 60.76 423.63 55.8 428.59 55.8 428.59 31 423.63 31 423.63 26.04 398.83 26.04 398.83 11.16 428.59 11.16"/><polygon class="cls-4" points="492 11.16 492 1.24 457.28 1.24 457.28 6.2 452.32 6.2 452.32 11.16 447.36 11.16 447.36 31 452.32 31 452.32 35.96 477.12 35.96 477.12 50.84 447.36 50.84 447.36 60.76 487.04 60.76 487.04 55.8 492 55.8 492 31 487.04 31 487.04 26.04 462.24 26.04 462.24 11.16 492 11.16"/><polygon class="cls-4" points="301.76 26.04 301.76 11.16 296.8 11.16 296.8 6.2 291.85 6.2 291.85 1.24 267.05 1.24 267.05 6.2 262.09 6.2 262.09 11.16 257.13 11.16 257.13 60.76 272.01 60.76 272.01 11.16 286.88 11.16 286.88 26.04 276.97 26.04 276.97 35.96 286.88 35.96 286.88 60.76 301.76 60.76 301.76 35.96 296.8 35.96 296.8 26.04 301.76 26.04"/><polygon class="cls-4" points="235.87 11.16 235.87 1.24 201.16 1.24 201.16 6.2 196.2 6.2 196.2 11.16 191.24 11.16 191.24 60.76 206.12 60.76 206.12 11.16 225.95 11.16 225.95 26.04 211.07 26.04 211.07 35.96 235.87 35.96 235.87 26.04 240.83 26.04 240.83 11.16 235.87 11.16"/></g></svg>